<?xml version="1.0" encoding="UTF-8" standalone="no"?>
<svg
   width="2000.00"
   height="967.00"
   viewBox="0.00 0.00 2000.00 967.00"
   version="1.1"
   id="svg41"
   sodipodi:docname="heist.svg"
   inkscape:version="1.1.2 (b8e25be833, 2022-02-05)"
   xmlns:inkscape="http://www.inkscape.org/namespaces/inkscape"
   xmlns:sodipodi="http://sodipodi.sourceforge.net/DTD/sodipodi-0.dtd"
   xmlns="http://www.w3.org/2000/svg"
   xmlns:svg="http://www.w3.org/2000/svg">
  <defs
     id="defs45">
    <inkscape:perspective
       sodipodi:type="inkscape:persp3d"
       inkscape:vp_x="0 : 483.5 : 1"
       inkscape:vp_y="0 : 1000 : 0"
       inkscape:vp_z="2000 : 483.5 : 1"
       inkscape:persp3d-origin="1000 : 322.33333 : 1"
       id="perspective1850" />
  </defs>
  <sodipodi:namedview
     id="namedview43"
     pagecolor="#ffffff"
     bordercolor="#666666"
     borderopacity="1.0"
     inkscape:pageshadow="2"
     inkscape:pageopacity="0.0"
     inkscape:pagecheckerboard="0"
     showgrid="false"
     inkscape:zoom="0.41778697"
     inkscape:cx="1116.5978"
     inkscape:cy="35.903465"
     inkscape:window-width="1920"
     inkscape:window-height="1017"
     inkscape:window-x="-8"
     inkscape:window-y="-8"
     inkscape:window-maximized="1"
     inkscape:current-layer="svg41" />
  <g
     id="g2065">
    <g
       stroke-linecap="round"
       transform="translate(-670.60644,-331.70297)"
       id="Layer_2">
      <path
         d="m 1759.5004,923.86 c -82.92,7.28 -179.8333,17.39333 -290.74,30.34 -153.38,13.72 -286.0771,39.73333 -398.0904,78.04 -120.69333,-44.12 -215.70667,-50.82333 -285.04,-20.11 -8.97333,-15.36667 -19.22,-46.34 -30.74,-92.92 -11.52,-46.58 -17.31,-163.10667 -17.37,-349.58 245.37333,-61.1 568.82,-88.74 970.34,-82.92"
         fill="none"
         stroke="#000000"
         stroke-width="32.92"
         stroke-opacity="1"
         stroke-linejoin="round"
         id="path28"
         sodipodi:nodetypes="ccccscc"
         inkscape:label="path28"
         style="stroke-width:30;stroke-miterlimit:4;stroke-dasharray:none" />
      <path
         d="M 1763.14,923.14 1951.026,897.37716 2123.92,873.67"
         fill="none"
         stroke="#000000"
         stroke-width="32.92"
         stroke-opacity="1"
         stroke-linejoin="round"
         id="path30"
         style="stroke-width:30;stroke-miterlimit:4;stroke-dasharray:none"
         sodipodi:nodetypes="ccc" />
      <path
         d="m 1710.04,487.43 q 301.48,40.77 364.95,49.36 11.61,1.57 13.78,3.38 2.18,1.82 1.21,4.73 -9.89,69.76 -3.49,156.67 6.39,86.92 37.43,169.2"
         fill="none"
         stroke="#000000"
         stroke-width="32.92"
         stroke-opacity="1"
         stroke-linejoin="round"
         id="path32"
         style="stroke-width:30;stroke-miterlimit:4;stroke-dasharray:none" />
      <path
         d="M 2083.2274,634.13998 C 2276.7141,751.97998 2466.52,831.49 2622.18,859.13 c -75.9333,66.56667 -210.4067,72.9 -403.42,19 55.7667,108.82 130.5933,229.05 224.48,360.69 -170.2067,-61.1 -336.7642,-176.6213 -489.5175,-338.10126"
         fill="none"
         stroke="#000000"
         stroke-width="32.92"
         stroke-opacity="1"
         stroke-linejoin="round"
         id="path34"
         style="stroke-width:30;stroke-miterlimit:4;stroke-dasharray:none"
         sodipodi:nodetypes="ccccc" />
      <path
         d="m 1269.24,854.76 c -53.44,-40.44 -86.0867,-90.92 -97.94,-151.44 -0.087,-0.43333 0.92,-0.87 3.02,-1.31 102.56,-48.00667 246.3567,-52.36667 431.11,-8.72 -91.6467,84.37333 -203.71,138.19667 -336.19,161.47"
         fill="none"
         stroke="#000000"
         stroke-width="32.92"
         stroke-opacity="1"
         stroke-linejoin="round"
         id="path36"
         style="stroke-width:10;stroke-miterlimit:4;stroke-dasharray:none"
         sodipodi:nodetypes="ccccc" />
      <path
         d="M 984.22501,826.20756 C 962.29168,780.07423 943.1149,733.42242 936.52409,722.37552 866.53076,715.08885 829.00333,720.15333 795.75,731.5 c -3.7,1.26 -6.42333,2.52667 -8.17,3.8 -1.74667,1.27333 -2.43,2.3 -2.05,3.08 -9.21333,71.76667 9.45667,125.11 56.01,160.03 77.93333,-25.98 127.75168,-37.63577 142.68501,-72.20244 z"
         fill="none"
         stroke="#000000"
         stroke-width="32.92"
         stroke-opacity="1"
         stroke-linejoin="round"
         id="path38"
         sodipodi:nodetypes="cccsccc"
         style="stroke-width:10;stroke-miterlimit:4;stroke-dasharray:none" />
    </g>
  </g>
  <g
     inkscape:groupmode="layer"
     id="layer1"
     inkscape:label="Layer 1" />
  <g
     id="g8496">
    <path
       style="fill:#000000;stroke-width:71.8069;stroke-miterlimit:4;stroke-dasharray:none"
       d="m 905.09457,166.21715 c -248.9613,1.46885 -499.23943,13.63565 -743.99858,61.92326 -26.79821,5.98024 -54.46754,10.60739 -80.362958,18.97688 -4.724282,17.12325 -0.538081,37.68105 -1.948663,56.07064 0.910394,85.42937 0.829364,171.35516 12.512711,256.13109 6.784542,33.94115 11.55554,69.67044 28.14739,100.44923 8.81389,8.98647 21.84887,-2.95224 32.46299,-2.72682 83.51725,-17.95372 167.31781,4.94757 247.15396,30.58006 21.65488,-3.15809 41.96301,-13.79047 63.59145,-18.06375 97.06372,-27.17248 196.57595,-42.99234 296.57177,-53.98172 148.43734,-18.34375 297.73786,-29.67852 445.90006,-50.90886 75.4302,-10.47642 151.2428,-19.06735 226.2548,-32.05701 8.0484,-8.3596 -1.6839,-21.69048 -2.383,-31.6514 -27.3751,-90.2514 -29.9664,-185.85832 -22.7494,-279.54937 -7.4791,-10.22934 -24.7816,-5.23065 -36.0203,-9.34051 -113.2251,-15.46865 -226.4276,-32.00869 -339.7973,-45.86594 -41.77832,0.0101 -83.55667,-0.0277 -125.33493,0.0142 z M 704.05386,330.72327 c 76.67875,0.47759 153.46503,10.97236 228.00103,29.74659 6.08334,2.53406 -6.8544,9.22764 -8.40086,12.49608 -90.29941,79.54738 -203.99509,129.5206 -322.00238,150.88695 -25.45879,-12.71586 -45.93777,-37.18924 -62.72726,-60.71556 -18.00913,-27.35847 -34.67989,-58.083 -37.97756,-90.9895 20.84137,-13.86587 46.50619,-19.78553 70.75561,-26.66381 43.43235,-10.70951 87.92794,-14.68283 132.35142,-14.76075 z m -487.47369,56.00567 c 16.68608,1.06003 34.58625,-1.28922 50.36771,5.13775 16.35685,33.13333 33.3407,66.75386 45.37019,101.41794 1.72422,13.65938 -13.97448,20.75591 -22.69678,28.72277 -36.70876,22.06964 -79.31706,31.91014 -119.3276,45.88444 -33.69792,-26.34226 -55.61583,-66.02439 -56.83614,-109.3211 0.046,-17.72604 -3.40946,-36.49264 1.94311,-53.59555 15.92653,-12.89342 38.51445,-12.38238 57.73126,-15.87721 14.38947,-1.54532 29.20062,-2.31158 43.44825,-2.36904 z"
       id="path8299" />
    <path
       style="fill:#000000;stroke-width:71.8069;stroke-miterlimit:4;stroke-dasharray:none"
       d="m 1425.2273,330.8308 c 0.7043,66.80168 14.0227,133.04695 35.2584,196.31902 2.9109,8.45837 7.1672,25.13892 -7.1854,24.92206 -45.7268,8.76495 -92.2142,12.74755 -138.0975,20.46685 -9.9988,8.25935 7.1103,17.14117 11.4407,23.91565 107.4156,108.48357 231.5581,202.08488 370.0407,267.16784 10.1788,3.06984 19.8263,12.20416 30.74,10.89364 8.0599,-8.26118 -6.4361,-17.74838 -9.1805,-25.58048 -62.5788,-94.28418 -124.4258,-189.26036 -176.101,-290.01005 -3.9111,-7.21621 -8.8325,-16.89319 1.0948,-22.15699 12.4217,-3.11717 28.0813,6.03705 41.7244,7.54922 90.6896,22.41365 187.0082,38.01058 279.3068,15.81857 16.5508,-5.4618 34.8046,-9.92442 48.6614,-20.50424 0.5174,-12.11921 -17.4456,-10.51324 -25.4479,-14.75619 -161.0322,-41.17623 -311.6065,-114.42805 -455.3547,-196.97141 -3.2868,-0.75571 -5.093,0.20483 -6.9002,2.92651 z"
       id="path8338" />
  </g>
</svg>
